<?xml version="1.0" encoding="UTF-8"?>
<svg id="Layer_1" data-name="Layer 1" xmlns="http://www.w3.org/2000/svg" viewBox="0 0 443.86 141.59">
  <defs>
    <style>
      .cls-1 {
        fill: #0231f3;
      }

      .cls-2 {
        fill: #fff;
      }
    </style>
  </defs>
  <g>
    <path class="cls-1" d="M73.98.29L30.3,43.97c-.63.63-.18,1.71.71,1.71h29.7c.27,0,.52-.11.71-.29l22.1-22.1c.19-.19.44-.29.71-.29h91.7c.89,0,1.34,1.08.71,1.71l-75.17,75.17c-.63.63-.18,1.71.71,1.71h29.7c.27,0,.52-.11.71-.29L232.15,1.71c.63-.63.18-1.71-.71-1.71H74.68c-.27,0-.52.11-.71.29Z"/>
    <path class="cls-1" d="M158.47,141.3l43.68-43.68c.63-.63.18-1.71-.71-1.71h-29.7c-.27,0-.52.11-.71.29l-22.1,22.1c-.19.19-.44.29-.71.29H56.53c-.89,0-1.34-1.08-.71-1.71l75.17-75.17c.63-.63.18-1.71-.71-1.71h-29.7c-.27,0-.52.11-.71.29L.3,139.88c-.63.63-.18,1.71.71,1.71h156.76c.27,0,.52-.11.71-.29Z"/>
  </g>
  <g>
    <polygon class="cls-2" points="280.17 29.35 297.74 5.99 297.74 0 269.29 0 269.29 7.59 286.65 7.59 286.65 7.77 269 31.1 269 37.12 298.3 37.12 298.3 29.53 280.17 29.53 280.17 29.35"/>
    <path class="cls-2" d="M313.45,28.99h12.09l2.32,8.13h9.93L325.29,0h-11.58l-12.5,37.12h9.93l2.31-8.13ZM319.58,8.08l4.02,14.1h-8.21l4.01-14.1h.18Z"/>
    <polygon class="cls-2" points="373.6 0 363.47 0 350.99 16.31 350.78 16.31 350.78 0 341.34 0 341.34 37.12 350.78 37.12 350.78 26.62 353.98 22.49 363.24 37.12 374.35 37.12 360.88 16.42 373.6 0"/>
    <g>
      <polygon class="cls-2" points="269 54.94 279.24 54.94 279.24 84.48 288.68 84.48 288.68 54.94 298.9 54.94 298.9 47.36 269 47.36 269 54.94"/>
      <path class="cls-2" d="M331.31,66.16c1.15-1.9,1.72-4.05,1.72-6.43v-.05c0-2.62-.55-4.85-1.65-6.69-1.1-1.83-2.69-3.23-4.78-4.19-2.09-.96-4.64-1.44-7.64-1.44h-16.08v37.12h9.44v-12.79h4.81l6.35,12.79h10.62l-7.41-14.17c1.92-.86,3.46-2.24,4.6-4.14ZM323.39,59.7c0,1.56-.49,2.81-1.48,3.74-.99.93-2.32,1.4-4,1.4h-5.58v-10.37h5.53c1.66,0,3,.47,4.01,1.41,1.01.94,1.52,2.2,1.52,3.76v.05Z"/>
      <path class="cls-2" d="M356.91,47.36h-8.7l-12.5,37.12h9.93l2.31-8.13h12.09l2.32,8.13h9.93l-12.5-37.12h-2.88ZM349.89,69.53l4.01-14.1h.18l4.02,14.1h-8.21Z"/>
      <polygon class="cls-2" points="398.87 68.76 398.7 68.76 383.87 47.36 375.84 47.36 375.84 84.48 385.28 84.48 385.28 62.84 385.45 62.84 400.36 84.48 408.28 84.48 408.28 47.36 398.87 47.36 398.87 68.76"/>
      <path class="cls-2" d="M442.62,67.92c-.82-1.4-2.08-2.55-3.78-3.46-1.7-.91-3.87-1.61-6.51-2.11l-3.81-.72c-1.99-.38-3.44-.86-4.35-1.44-.91-.58-1.36-1.37-1.36-2.37v-.03c0-.7.21-1.33.63-1.89s1.03-1,1.84-1.33c.81-.33,1.78-.49,2.93-.49s2.14.16,3.01.49c.87.33,1.58.78,2.11,1.36.53.58.85,1.29.95,2.11l.03.28h8.77l-.03-.54c-.1-2.25-.75-4.2-1.94-5.87-1.19-1.66-2.88-2.95-5.05-3.87-2.18-.92-4.82-1.38-7.92-1.38-2.83,0-5.36.48-7.58,1.45s-3.97,2.33-5.24,4.09c-1.27,1.76-1.9,3.83-1.9,6.21v.03c0,2.85.96,5.17,2.87,6.96,1.91,1.79,4.7,3.03,8.37,3.72l3.81.75c2.18.41,3.72.9,4.63,1.48.91.57,1.36,1.39,1.36,2.43v.03c0,.77-.25,1.45-.75,2.03-.5.58-1.2,1.04-2.1,1.38-.9.33-1.98.5-3.23.5s-2.29-.17-3.27-.5-1.78-.8-2.41-1.39c-.63-.59-1.02-1.29-1.2-2.1l-.05-.26h-8.77l.03.46c.15,2.37.87,4.38,2.15,6.05,1.28,1.66,3.05,2.94,5.33,3.82,2.27.88,4.95,1.32,8.04,1.32,3.28,0,6.08-.49,8.41-1.48,2.33-.99,4.12-2.39,5.35-4.21,1.23-1.82,1.85-3.96,1.85-6.43v-.03c0-1.99-.41-3.68-1.24-5.08Z"/>
    </g>
  </g>
  <g>
    <path class="cls-2" d="M273.65,103.63c.42-.93,1.02-1.66,1.78-2.17s1.67-.77,2.71-.77c.74,0,1.39.12,1.97.36.58.24,1.06.58,1.47,1.02.4.44.7.98.9,1.62l.08.24h1.97l-.02-.11c-.19-.99-.59-1.85-1.18-2.58-.59-.73-1.34-1.31-2.22-1.72-.89-.41-1.87-.62-2.95-.62-1.45,0-2.71.33-3.77.99-1.07.66-1.89,1.59-2.48,2.79-.58,1.2-.88,2.62-.88,4.26h0c0,1.65.29,3.07.88,4.28.58,1.21,1.41,2.14,2.48,2.81,1.07.66,2.33,1,3.77,1,1.09,0,2.08-.2,2.96-.61.89-.4,1.63-.97,2.22-1.71.59-.74.98-1.61,1.18-2.6l.02-.11h-1.97l-.03.1c-.22.69-.54,1.26-.95,1.72-.41.47-.9.82-1.48,1.05s-1.22.36-1.95.36c-1.03,0-1.93-.26-2.7-.78-.77-.52-1.37-1.25-1.79-2.19-.42-.94-.63-2.04-.63-3.3h0c0-1.28.21-2.38.63-3.31Z"/>
    <path class="cls-2" d="M297.23,99.88c-1.07-.66-2.35-.98-3.82-.98s-2.75.33-3.82.98c-1.08.66-1.91,1.58-2.5,2.78-.59,1.2-.88,2.63-.88,4.28v.02c0,1.65.29,3.08.88,4.28.58,1.2,1.41,2.13,2.49,2.79,1.08.66,2.35.98,3.83.98s2.75-.33,3.82-.98c1.07-.66,1.9-1.59,2.48-2.79.58-1.2.88-2.63.88-4.28v-.02c0-1.65-.29-3.08-.88-4.28s-1.41-2.13-2.49-2.78ZM298.6,106.96c0,1.27-.21,2.37-.63,3.31s-1.01,1.66-1.79,2.18c-.78.52-1.7.77-2.77.77s-1.99-.26-2.77-.77c-.78-.51-1.38-1.24-1.81-2.17-.43-.94-.64-2.04-.64-3.32v-.02c0-1.28.21-2.39.64-3.32.42-.93,1.03-1.65,1.81-2.16s1.7-.76,2.76-.76,1.98.25,2.76.76c.78.51,1.38,1.23,1.8,2.17.42.94.63,2.04.63,3.32v.02Z"/>
    <polygon class="cls-2" points="304.94 102.44 304.99 102.44 313.58 114.76 315.47 114.76 315.47 99.15 313.54 99.15 313.54 111.47 313.49 111.47 304.9 99.15 303.01 99.15 303.01 114.76 304.94 114.76 304.94 102.44"/>
    <path class="cls-2" d="M326.68,114.46c.86-.37,1.52-.89,1.99-1.57.47-.68.7-1.48.7-2.4h0c0-.8-.16-1.48-.47-2.05-.31-.57-.8-1.04-1.47-1.42s-1.53-.69-2.6-.92l-1.73-.38c-1.02-.22-1.77-.54-2.25-.95s-.72-.93-.72-1.57h0c0-.51.14-.95.43-1.33.28-.37.69-.67,1.21-.88s1.12-.31,1.82-.31,1.25.1,1.75.3c.5.2.91.49,1.22.87.31.37.5.83.58,1.36l.02.15h1.95v-.16c-.07-.85-.34-1.6-.82-2.25-.48-.65-1.12-1.16-1.92-1.52s-1.71-.55-2.72-.55c-1.07,0-2.01.19-2.84.56-.83.37-1.47.88-1.94,1.54s-.71,1.41-.71,2.26h0c0,1.15.37,2.07,1.1,2.77.73.7,1.86,1.22,3.38,1.56l1.73.38c1.07.24,1.85.56,2.32.97.48.41.71.96.71,1.64h0c0,.54-.15,1.01-.45,1.41s-.72.7-1.27.91c-.55.21-1.2.32-1.95.32s-1.41-.1-1.98-.31c-.57-.21-1.03-.5-1.38-.88-.35-.38-.56-.83-.64-1.35l-.02-.15h-1.95v.15c.08.89.36,1.65.86,2.3.5.65,1.18,1.15,2.03,1.5.85.35,1.84.52,2.97.52,1.19,0,2.21-.18,3.08-.55Z"/>
    <polygon class="cls-2" points="335.15 114.76 337.09 114.76 337.09 100.9 342.01 100.9 342.01 99.15 330.23 99.15 330.23 100.9 335.15 100.9 335.15 114.76"/>
    <path class="cls-2" d="M349.68,108.58h.06l3.34,6.17h2.28l-3.61-6.48c.97-.31,1.74-.86,2.3-1.65.56-.79.84-1.72.84-2.81v-.02c0-.94-.21-1.75-.62-2.45-.41-.7-.99-1.24-1.74-1.62s-1.62-.58-2.62-.58h-5.85v15.6h1.95v-6.17h3.67ZM346.01,100.88h3.64c1,0,1.79.26,2.36.78s.86,1.25.86,2.18v.02c0,.96-.27,1.7-.82,2.22-.54.52-1.32.78-2.32.78h-3.73v-5.98Z"/>
    <path class="cls-2" d="M366.86,114.29c.92-.48,1.63-1.16,2.12-2.02s.74-1.86.74-2.99v-10.13h-1.95v10c0,.8-.17,1.51-.5,2.11-.33.61-.81,1.09-1.44,1.43-.63.35-1.4.52-2.3.52s-1.67-.17-2.3-.52c-.63-.35-1.12-.82-1.45-1.43-.33-.61-.5-1.31-.5-2.11v-10h-1.95v10.13c0,1.13.25,2.13.75,2.99.5.86,1.21,1.53,2.14,2.02.93.48,2.03.72,3.32.72s2.4-.24,3.32-.72Z"/>
    <path class="cls-2" d="M374.78,103.63c.42-.93,1.02-1.66,1.78-2.17s1.67-.77,2.71-.77c.74,0,1.39.12,1.97.36.58.24,1.06.58,1.47,1.02.4.44.7.98.9,1.62l.08.24h1.97l-.02-.11c-.19-.99-.59-1.85-1.18-2.58-.59-.73-1.34-1.31-2.22-1.72-.89-.41-1.87-.62-2.95-.62-1.45,0-2.71.33-3.77.99-1.07.66-1.89,1.59-2.48,2.79-.58,1.2-.88,2.62-.88,4.26h0c0,1.65.29,3.07.88,4.28.58,1.21,1.41,2.14,2.48,2.81,1.07.66,2.33,1,3.77,1,1.09,0,2.08-.2,2.96-.61.89-.4,1.63-.97,2.22-1.71.59-.74.98-1.61,1.18-2.6l.02-.11h-1.97l-.03.1c-.22.69-.54,1.26-.95,1.72-.41.47-.9.82-1.48,1.05s-1.22.36-1.95.36c-1.03,0-1.93-.26-2.7-.78-.77-.52-1.37-1.25-1.79-2.19-.42-.94-.63-2.04-.63-3.3h0c0-1.28.21-2.38.63-3.31Z"/>
    <polygon class="cls-2" points="386.22 100.9 391.14 100.9 391.14 114.76 393.08 114.76 393.08 100.9 398 100.9 398 99.15 386.22 99.15 386.22 100.9"/>
    <rect class="cls-2" x="400.06" y="99.15" width="1.95" height="15.6"/>
    <path class="cls-2" d="M415.44,99.88c-1.07-.66-2.35-.98-3.82-.98s-2.75.33-3.82.98c-1.08.66-1.91,1.58-2.5,2.78-.59,1.2-.88,2.63-.88,4.28v.02c0,1.65.29,3.08.88,4.28.58,1.2,1.41,2.13,2.49,2.79,1.08.66,2.35.98,3.83.98s2.75-.33,3.82-.98c1.07-.66,1.9-1.59,2.48-2.79.58-1.2.88-2.63.88-4.28v-.02c0-1.65-.29-3.08-.88-4.28s-1.41-2.13-2.49-2.78ZM416.82,106.96c0,1.27-.21,2.37-.63,3.31s-1.01,1.66-1.79,2.18c-.78.52-1.7.77-2.77.77s-1.99-.26-2.77-.77c-.78-.51-1.38-1.24-1.81-2.17-.43-.94-.64-2.04-.64-3.32v-.02c0-1.28.21-2.39.64-3.32.42-.93,1.03-1.65,1.81-2.16s1.7-.76,2.76-.76,1.98.25,2.76.76c.78.51,1.38,1.23,1.8,2.17.42.94.63,2.04.63,3.32v.02Z"/>
    <polygon class="cls-2" points="431.76 99.15 431.76 111.47 431.7 111.47 423.12 99.15 421.23 99.15 421.23 114.76 423.15 114.76 423.15 102.44 423.21 102.44 431.79 114.76 433.68 114.76 433.68 99.15 431.76 99.15"/>
    <path class="cls-2" d="M273.65,130.21c.42-.93,1.02-1.66,1.78-2.17s1.67-.77,2.71-.77c.74,0,1.39.12,1.97.36.58.24,1.06.58,1.47,1.02.4.44.7.98.9,1.62l.08.24h1.97l-.02-.11c-.19-.99-.59-1.85-1.18-2.58-.59-.73-1.34-1.31-2.22-1.72-.89-.41-1.87-.62-2.95-.62-1.45,0-2.71.33-3.77.99-1.07.66-1.89,1.59-2.48,2.79-.58,1.2-.88,2.62-.88,4.26h0c0,1.65.29,3.07.88,4.28.58,1.21,1.41,2.14,2.48,2.81,1.07.66,2.33,1,3.77,1,1.09,0,2.08-.2,2.96-.61.89-.4,1.63-.97,2.22-1.71.59-.74.98-1.61,1.18-2.6l.02-.11h-1.97l-.03.1c-.22.69-.54,1.26-.95,1.72-.41.47-.9.82-1.48,1.05s-1.22.36-1.95.36c-1.03,0-1.93-.26-2.7-.78-.77-.52-1.37-1.25-1.79-2.19-.42-.94-.63-2.04-.63-3.3h0c0-1.28.21-2.38.63-3.31Z"/>
    <path class="cls-2" d="M297.23,126.45c-1.07-.66-2.35-.98-3.82-.98s-2.75.33-3.82.98c-1.08.66-1.91,1.58-2.5,2.78-.59,1.2-.88,2.63-.88,4.28v.02c0,1.65.29,3.08.88,4.28.58,1.2,1.41,2.13,2.49,2.79,1.08.66,2.35.98,3.83.98s2.75-.33,3.82-.98c1.07-.66,1.9-1.59,2.48-2.79.58-1.2.88-2.63.88-4.28v-.02c0-1.65-.29-3.08-.88-4.28s-1.41-2.13-2.49-2.78ZM298.6,133.53c0,1.27-.21,2.37-.63,3.31s-1.01,1.66-1.79,2.18c-.78.52-1.7.77-2.77.77s-1.99-.26-2.77-.77c-.78-.51-1.38-1.24-1.81-2.17-.43-.94-.64-2.04-.64-3.32v-.02c0-1.28.21-2.39.64-3.32.42-.93,1.03-1.65,1.81-2.16s1.7-.76,2.76-.76,1.98.25,2.76.76c.78.51,1.38,1.23,1.8,2.17.42.94.63,2.04.63,3.32v.02Z"/>
    <polygon class="cls-2" points="310.73 138.87 310.67 138.87 305.26 125.73 303.01 125.73 303.01 141.33 304.83 141.33 304.83 129.27 304.89 129.27 309.88 141.33 311.52 141.33 316.51 129.27 316.57 129.27 316.57 141.33 318.39 141.33 318.39 125.73 316.14 125.73 310.73 138.87"/>
    <path class="cls-2" d="M331.98,130.71c0-.99-.21-1.86-.64-2.61-.43-.75-1.02-1.33-1.77-1.75s-1.61-.63-2.6-.63h-5.56v15.6h1.95v-5.57h3.61c.98,0,1.85-.21,2.6-.64.75-.42,1.34-1.02,1.77-1.77.43-.76.64-1.63.64-2.62v-.02ZM329.99,130.75c0,1.02-.31,1.83-.92,2.41-.61.58-1.48.87-2.6.87h-3.11v-6.57h3.11c1.12,0,1.98.29,2.6.87.61.58.92,1.38.92,2.41v.02Z"/>
    <path class="cls-2" d="M339.02,125.73h-1.44l-5.81,15.6h2.04l1.58-4.47h6.28l1.58,4.47h2.04l-5.8-15.6h-.49ZM335.99,135.21l2.53-7.15h.04l2.53,7.15h-5.11Z"/>
    <polygon class="cls-2" points="357.62 138.04 357.56 138.04 348.98 125.73 347.09 125.73 347.09 141.33 349.01 141.33 349.01 129.01 349.07 129.01 357.65 141.33 359.54 141.33 359.54 125.73 357.62 125.73 357.62 138.04"/>
    <polygon class="cls-2" points="367.87 132.73 367.8 132.73 363.54 125.73 361.33 125.73 366.86 134.61 366.86 141.33 368.81 141.33 368.81 134.61 374.34 125.73 372.13 125.73 367.87 132.73"/>
  </g>
</svg>